<svg width="32" height="32" viewBox="0 0 32 32" fill="none" xmlns="http://www.w3.org/2000/svg">
<path fill-rule="evenodd" clip-rule="evenodd" d="M16 14C14.8954 14 14 14.8954 14 16C14 17.1046 14.8954 18 16 18C17.1046 18 18 17.1046 18 16C18 14.8954 17.1046 14 16 14ZM12 16C12 13.7909 13.7909 12 16 12C18.2091 12 20 13.7909 20 16C20 18.2091 18.2091 20 16 20C13.7909 20 12 18.2091 12 16Z" fill="#C6ADE6"/>
<path fill-rule="evenodd" clip-rule="evenodd" d="M12 5C10.8954 5 10 5.89543 10 7C10 8.10457 10.8954 9 12 9C13.1046 9 14 8.10457 14 7C14 5.89543 13.1046 5 12 5ZM8 7C8 4.79086 9.79086 3 12 3C14.2091 3 16 4.79086 16 7C16 9.20914 14.2091 11 12 11C9.79086 11 8 9.20914 8 7Z" fill="#C6ADE6"/>
<path fill-rule="evenodd" clip-rule="evenodd" d="M25 11C23.8954 11 23 11.8954 23 13C23 14.1046 23.8954 15 25 15C26.1046 15 27 14.1046 27 13C27 11.8954 26.1046 11 25 11ZM21 13C21 10.7909 22.7909 9 25 9C27.2091 9 29 10.7909 29 13C29 15.2091 27.2091 17 25 17C22.7909 17 21 15.2091 21 13Z" fill="#C6ADE6"/>
<path fill-rule="evenodd" clip-rule="evenodd" d="M25 21C23.8954 21 23 21.8954 23 23C23 24.1046 23.8954 25 25 25C26.1046 25 27 24.1046 27 23C27 21.8954 26.1046 21 25 21ZM21 23C21 20.7909 22.7909 19 25 19C27.2091 19 29 20.7909 29 23C29 25.2091 27.2091 27 25 27C22.7909 27 21 25.2091 21 23Z" fill="#C6ADE6"/>
<path fill-rule="evenodd" clip-rule="evenodd" d="M7 22C5.89543 22 5 22.8954 5 24C5 25.1046 5.89543 26 7 26C8.10457 26 9 25.1046 9 24C9 22.8954 8.10457 22 7 22ZM3 24C3 21.7909 4.79086 20 7 20C9.20914 20 11 21.7909 11 24C11 26.2091 9.20914 28 7 28C4.79086 28 3 26.2091 3 24Z" fill="#C6ADE6"/>
<path fill-rule="evenodd" clip-rule="evenodd" d="M12.8042 8.82454C13.3085 8.59925 13.8999 8.82537 14.1252 9.32961L15.7002 12.8546C15.9255 13.3589 15.6993 13.9503 15.1951 14.1756C14.6909 14.4009 14.0995 14.1747 13.8742 13.6705L12.2992 10.1455C12.0739 9.64125 12.3 9.04984 12.8042 8.82454Z" fill="#C6ADE6"/>
<path fill-rule="evenodd" clip-rule="evenodd" d="M23.0986 13.6338C23.2732 14.1577 22.9901 14.724 22.4661 14.8987L19.1661 15.9987C18.6422 16.1733 18.0758 15.8902 17.9012 15.3662C17.7265 14.8423 18.0097 14.2759 18.5337 14.1013L21.8337 13.0013C22.3576 12.8266 22.9239 13.1098 23.0986 13.6338Z" fill="#C6ADE6"/>
<path fill-rule="evenodd" clip-rule="evenodd" d="M17.573 17.2235C17.9121 16.7876 18.5403 16.709 18.9763 17.0481L23.2513 20.3731C23.6872 20.7122 23.7658 21.3404 23.4267 21.7764C23.0876 22.2123 22.4594 22.2909 22.0234 21.9518L17.7484 18.6268C17.3125 18.2877 17.2339 17.6595 17.573 17.2235Z" fill="#C6ADE6"/>
<path fill-rule="evenodd" clip-rule="evenodd" d="M14.5095 17.3227C14.8766 17.7354 14.8396 18.3674 14.4269 18.7345L9.90194 22.7595C9.48928 23.1266 8.85719 23.0896 8.49013 22.6769C8.12307 22.2643 8.16004 21.6322 8.5727 21.2651L13.0977 17.2401C13.5104 16.8731 14.1424 16.91 14.5095 17.3227Z" fill="#C6ADE6"/>
</svg>
