<svg width="32" height="32" viewBox="0 0 32 32" fill="none" xmlns="http://www.w3.org/2000/svg">
<path fill-rule="evenodd" clip-rule="evenodd" d="M16 9C16.5523 9 17 9.44772 17 10V16C17 16.5523 16.5523 17 16 17C15.4477 17 15 16.5523 15 16V10C15 9.44772 15.4477 9 16 9Z" fill="#8DD7E0"/>
<path fill-rule="evenodd" clip-rule="evenodd" d="M15.134 15.5004C15.41 15.0221 16.0215 14.858 16.4999 15.134L21.6999 18.134C22.1783 18.41 22.3423 19.0215 22.0664 19.4999C21.7904 19.9783 21.1788 20.1423 20.7004 19.8664L15.5004 16.8664C15.0221 16.5904 14.858 15.9788 15.134 15.5004Z" fill="#8DD7E0"/>
<path fill-rule="evenodd" clip-rule="evenodd" d="M3.97461 6.4624C4.52689 6.4624 4.97461 6.91012 4.97461 7.4624V11.4624H8.97461C9.52689 11.4624 9.97461 11.9101 9.97461 12.4624C9.97461 13.0147 9.52689 13.4624 8.97461 13.4624H3.97461C3.42232 13.4624 2.97461 13.0147 2.97461 12.4624V7.4624C2.97461 6.91012 3.42232 6.4624 3.97461 6.4624Z" fill="#8DD7E0"/>
<path fill-rule="evenodd" clip-rule="evenodd" d="M13.6613 4.2313C15.9893 3.76748 18.4026 4.00455 20.5959 4.91251C22.7892 5.82048 24.6639 7.35854 25.9829 9.33215C27.3019 11.3057 28.006 13.6262 28.006 16C28.006 18.3738 27.3019 20.6943 25.9829 22.6679C24.6639 24.6415 22.7892 26.1795 20.5959 27.0875C18.4026 27.9955 15.9893 28.2325 13.6613 27.7687C11.3332 27.3049 9.19505 26.161 7.51721 24.4818C7.12685 24.0911 7.12711 23.458 7.51779 23.0676C7.90848 22.6772 8.54164 22.6775 8.932 23.0682C10.3302 24.4675 12.112 25.4207 14.0521 25.8073C15.9921 26.1938 18.0032 25.9962 19.8309 25.2396C21.6586 24.4829 23.2209 23.2012 24.3201 21.5566C25.4193 19.9119 26.006 17.9782 26.006 16C26.006 14.0218 25.4193 12.0881 24.3201 10.4435C23.2209 8.79879 21.6586 7.51707 19.8309 6.76043C18.0032 6.00379 15.9921 5.80624 14.0521 6.19275C12.112 6.57926 10.3302 7.53248 8.932 8.93182L8.93067 8.93315L4.68067 13.1707C4.28957 13.5606 3.65641 13.5597 3.26646 13.1686C2.87651 12.7775 2.87745 12.1443 3.26854 11.7544L7.51721 7.51819C7.51744 7.51796 7.51766 7.51774 7.51789 7.51751C9.19563 5.83867 11.3335 4.69505 13.6613 4.2313Z" fill="#8DD7E0"/>
</svg>
