<svg width="23" height="23" viewBox="0 0 23 23" fill="none" xmlns="http://www.w3.org/2000/svg">
<path fill-rule="evenodd" clip-rule="evenodd" d="M15.9732 8.84762C16.2472 9.13484 16.2365 9.5898 15.9493 9.8638L10.6754 14.8951C10.3976 15.1601 9.96037 15.16 9.68272 14.8946L7.0503 12.379C6.76332 12.1048 6.753 11.6498 7.02725 11.3628C7.3015 11.0758 7.75647 11.0655 8.04345 11.3397L10.1797 13.3812L14.957 8.8237C15.2442 8.54969 15.6992 8.5604 15.9732 8.84762Z" fill="#6BB9A6"/>
<path fill-rule="evenodd" clip-rule="evenodd" d="M11.5 3.59375C7.1335 3.59375 3.59375 7.1335 3.59375 11.5C3.59375 15.8665 7.1335 19.4062 11.5 19.4062C15.8665 19.4062 19.4062 15.8665 19.4062 11.5C19.4062 7.1335 15.8665 3.59375 11.5 3.59375ZM2.15625 11.5C2.15625 6.33959 6.33959 2.15625 11.5 2.15625C16.6604 2.15625 20.8438 6.33959 20.8438 11.5C20.8438 16.6604 16.6604 20.8438 11.5 20.8438C6.33959 20.8438 2.15625 16.6604 2.15625 11.5Z" fill="#6BB9A6"/>
</svg>
