<svg width="23" height="23" viewBox="0 0 23 23" fill="none" xmlns="http://www.w3.org/2000/svg">
<path fill-rule="evenodd" clip-rule="evenodd" d="M11.5 3.59375C7.1335 3.59375 3.59375 7.1335 3.59375 11.5C3.59375 15.8665 7.1335 19.4062 11.5 19.4062C15.8665 19.4062 19.4062 15.8665 19.4062 11.5C19.4062 7.1335 15.8665 3.59375 11.5 3.59375ZM2.15625 11.5C2.15625 6.33959 6.33959 2.15625 11.5 2.15625C16.6604 2.15625 20.8438 6.33959 20.8438 11.5C20.8438 16.6604 16.6604 20.8438 11.5 20.8438C6.33959 20.8438 2.15625 16.6604 2.15625 11.5Z" fill="#FF7777"/>
<path fill-rule="evenodd" clip-rule="evenodd" d="M14.8832 8.11677C15.1639 8.39746 15.1639 8.85254 14.8832 9.13323L9.13323 14.8832C8.85254 15.1639 8.39746 15.1639 8.11677 14.8832C7.83608 14.6025 7.83608 14.1475 8.11677 13.8668L13.8668 8.11677C14.1475 7.83608 14.6025 7.83608 14.8832 8.11677Z" fill="#FF7777"/>
<path fill-rule="evenodd" clip-rule="evenodd" d="M8.11677 8.11677C8.39746 7.83608 8.85254 7.83608 9.13323 8.11677L14.8832 13.8668C15.1639 14.1475 15.1639 14.6025 14.8832 14.8832C14.6025 15.1639 14.1475 15.1639 13.8668 14.8832L8.11677 9.13323C7.83608 8.85254 7.83608 8.39746 8.11677 8.11677Z" fill="#FF7777"/>
</svg>
